<svg width="391" height="16" viewBox="0 0 391 16" fill="none" xmlns="http://www.w3.org/2000/svg">
<g clip-path="url(#clip0_3570_313)">
<mask id="mask0_3570_313" style="mask-type:luminance" maskUnits="userSpaceOnUse" x="1" y="0" width="390" height="16">
<path d="M390.259 0.0600586H1.10938V15.9501H390.259V0.0600586Z" fill="white"/>
</mask>
<g mask="url(#mask0_3570_313)">
<path d="M35.6094 3.86006C36.9094 3.86006 38.1594 4.44006 38.9294 5.52006V0.820059C37.8094 0.340059 36.6894 0.0600586 35.4694 0.0600586C33.4194 0.0600586 31.3594 0.980059 29.9294 2.50006C28.5394 3.98006 27.7894 5.96006 27.7894 8.02006C27.7894 10.2601 28.5294 12.2201 30.1294 13.7201C31.6394 15.1401 33.5694 15.9401 35.5994 15.9401C36.7794 15.9401 37.6794 15.6401 38.9394 15.2401V10.5401C38.1494 11.5201 36.9094 12.1401 35.6794 12.1401C33.3194 12.1401 31.7394 10.4201 31.7394 8.04006C31.7394 5.66006 33.2994 3.86006 35.6194 3.86006M23.4994 15.5501H27.2794V0.460059H23.4994V15.5501ZM14.8294 12.2301H13.9794V3.78006H14.8694C17.3094 3.78006 19.0194 5.30006 19.0194 8.00006C19.0194 10.9401 17.0894 12.2201 14.8294 12.2201M15.5494 0.460059H10.1794V15.5501H15.5494C19.5894 15.5501 22.9494 12.2501 22.9494 8.01006C22.9494 3.77006 19.6094 0.460059 15.5494 0.460059ZM1.10938 15.5401H4.88937V9.62006H9.03938V6.30006H4.88937V3.78006H9.46937V0.460059H1.10938V15.5501V15.5401Z" fill="#003256"/>
<path d="M388.449 11.0801C388.879 11.0801 389.249 10.9401 389.499 10.8301L389.309 10.2001C389.139 10.2801 388.939 10.3701 388.729 10.3701C388.199 10.3701 388.019 10.1401 388.019 9.68009C388.019 9.53009 388.029 9.41009 388.049 9.27009L388.699 6.09009H390.129L390.269 5.38009H388.859L389.169 3.85009H388.429L388.019 5.38009L387.149 5.44009L387.019 6.09009H387.829L387.179 9.22009C387.159 9.43009 387.119 9.61009 387.119 9.84009C387.119 10.5301 387.469 11.0701 388.449 11.0701M380.549 10.9301H381.419L382.209 7.00009C382.909 6.30009 383.449 5.99009 383.879 5.99009C384.449 5.99009 384.709 6.29009 384.709 6.85009C384.709 7.04009 384.679 7.20009 384.619 7.50009L383.929 10.9301H384.799L385.509 7.38009C385.579 7.07009 385.599 6.88009 385.599 6.61009C385.599 5.75009 385.219 5.23009 384.289 5.23009C383.589 5.23009 382.969 5.65009 382.339 6.20009H382.299L382.379 5.37009H381.659L380.559 10.9301H380.549ZM375.839 7.74009C376.129 6.64009 376.929 5.93009 377.739 5.93009C378.549 5.93009 378.819 6.54009 378.819 7.17009C378.819 7.39009 378.799 7.56009 378.759 7.74009H375.839ZM374.869 8.75009C374.869 10.2401 375.739 11.0701 377.049 11.0701C377.769 11.0701 378.399 10.8001 378.849 10.4801L378.509 9.90009C378.159 10.1601 377.699 10.3801 377.259 10.3801C376.289 10.3801 375.539 9.77009 375.749 8.34009H379.369C379.439 8.13009 379.559 7.70009 379.559 7.25009C379.559 6.10009 379.089 5.24009 377.849 5.24009C376.399 5.24009 374.879 6.66009 374.879 8.75009M365.429 10.9401H366.299L367.089 7.01009C367.739 6.31009 368.329 6.00009 368.659 6.00009C369.209 6.00009 369.459 6.30009 369.459 6.86009C369.459 7.05009 369.419 7.21009 369.369 7.51009L368.679 10.9401H369.549L370.339 7.01009C370.999 6.31009 371.589 6.00009 371.909 6.00009C372.459 6.00009 372.719 6.30009 372.719 6.86009C372.719 7.05009 372.689 7.21009 372.629 7.51009L371.929 10.9401H372.809L373.519 7.39009C373.579 7.08009 373.609 6.89009 373.609 6.62009C373.609 5.76009 373.219 5.24009 372.289 5.24009C371.719 5.24009 371.029 5.65009 370.319 6.33009C370.239 5.72009 369.919 5.24009 369.039 5.24009C368.459 5.24009 367.789 5.66009 367.209 6.21009H367.169L367.249 5.38009H366.529L365.429 10.9401ZM359.249 10.9401H360.119L360.909 7.01009C361.609 6.31009 362.149 6.00009 362.579 6.00009C363.149 6.00009 363.399 6.30009 363.399 6.86009C363.399 7.05009 363.369 7.21009 363.309 7.51009L362.619 10.9401H363.489L364.199 7.39009C364.269 7.08009 364.289 6.89009 364.289 6.62009C364.289 5.76009 363.909 5.24009 362.969 5.24009C362.269 5.24009 361.649 5.66009 361.029 6.21009H360.979L361.059 5.38009H360.339L359.239 10.9401H359.249ZM355.099 10.9401H355.969L356.669 7.43009C357.139 6.53009 357.759 6.03009 358.309 6.03009C358.519 6.03009 358.679 6.06009 358.789 6.12009L359.099 5.34009C358.939 5.27009 358.779 5.24009 358.569 5.24009C357.879 5.24009 357.289 5.77009 356.839 6.44009H356.789L356.919 5.38009H356.199L355.099 10.9401ZM350.389 7.75009C350.679 6.65009 351.479 5.94009 352.289 5.94009C353.099 5.94009 353.369 6.55009 353.369 7.18009C353.369 7.40009 353.349 7.57009 353.309 7.75009H350.389ZM349.419 8.76009C349.419 10.2501 350.289 11.0801 351.599 11.0801C352.319 11.0801 352.949 10.8101 353.399 10.4901L353.059 9.91009C352.709 10.1701 352.249 10.3901 351.809 10.3901C350.839 10.3901 350.089 9.78009 350.299 8.35009H353.919C353.989 8.14009 354.109 7.71009 354.109 7.26009C354.109 6.11009 353.639 5.25009 352.399 5.25009C350.949 5.25009 349.429 6.67009 349.429 8.76009M345.209 10.9501H346.259L349.219 5.39009H348.339L346.699 8.60009C346.409 9.15009 346.139 9.71009 345.879 10.2601H345.839C345.779 9.72009 345.739 9.14009 345.679 8.60009L345.269 5.39009H344.399L345.209 10.9501ZM340.189 10.3601C339.419 10.3601 338.999 9.81009 338.999 8.81009C338.999 7.25009 340.009 5.98009 341.029 5.98009C341.799 5.98009 342.219 6.54009 342.219 7.55009C342.219 9.11009 341.219 10.3601 340.189 10.3601ZM340.099 11.0901C341.619 11.0901 343.109 9.59009 343.109 7.49009C343.109 6.11009 342.319 5.26009 341.119 5.26009C339.599 5.26009 338.119 6.76009 338.119 8.86009C338.119 10.2501 338.899 11.0901 340.099 11.0901ZM334.109 11.0901C334.969 11.0901 335.689 10.7801 336.239 10.3201L336.889 7.07009H334.529L334.379 7.80009H335.929L335.509 9.87009C335.209 10.1201 334.779 10.3301 334.229 10.3301C332.789 10.3301 332.239 9.31009 332.239 7.97009C332.239 6.15009 333.379 4.07009 335.269 4.07009C335.879 4.07009 336.289 4.40009 336.569 4.88009L337.199 4.41009C336.819 3.77009 336.209 3.30009 335.309 3.30009C332.849 3.30009 331.319 5.67009 331.319 8.05009C331.319 9.88009 332.289 11.0801 334.099 11.0801M326.509 11.0801C326.939 11.0801 327.259 10.6801 327.259 10.2901C327.259 9.96009 327.069 9.71009 326.729 9.71009C326.299 9.71009 325.959 10.1201 325.959 10.5101C325.959 10.8401 326.169 11.0801 326.499 11.0801M322.099 11.0801C323.619 11.0801 324.709 10.1201 324.709 8.78009C324.709 7.95009 324.299 7.44009 323.579 7.02009L322.709 6.50009C322.159 6.17009 321.739 5.86009 321.739 5.28009C321.739 4.70009 322.259 4.07009 323.099 4.07009C323.799 4.07009 324.319 4.42009 324.709 4.88009L325.289 4.35009C324.819 3.74009 324.049 3.30009 323.159 3.30009C321.809 3.30009 320.829 4.25009 320.829 5.38009C320.829 6.23009 321.339 6.75009 321.979 7.14009L322.849 7.67009C323.409 8.01009 323.789 8.36009 323.789 8.91009C323.789 9.77009 323.089 10.3301 322.179 10.3301C321.339 10.3301 320.689 9.93009 320.249 9.27009L319.599 9.76009C320.209 10.6501 321.079 11.0901 322.099 11.0901M317.189 11.0901C317.619 11.0901 317.939 10.6901 317.939 10.3001C317.939 9.97009 317.749 9.72009 317.409 9.72009C316.979 9.72009 316.639 10.1301 316.639 10.5201C316.639 10.8501 316.849 11.0901 317.179 11.0901M310.229 7.66009C310.159 8.04009 310.119 8.40009 310.119 8.72009C310.119 10.2801 310.959 11.0901 312.479 11.0901C313.819 11.0901 314.869 10.2501 315.289 8.08009L316.229 3.45009H315.359L314.429 8.05009C314.109 9.69009 313.379 10.3301 312.519 10.3301C311.469 10.3301 310.999 9.72009 310.999 8.65009C310.999 8.38009 311.029 8.09009 311.099 7.75009L311.959 3.46009H311.069L310.229 7.67009V7.66009ZM302.909 7.76009C303.189 6.66009 303.999 5.95009 304.809 5.95009C305.619 5.95009 305.889 6.56009 305.889 7.19009C305.889 7.41009 305.869 7.58009 305.829 7.76009H302.909ZM301.939 8.77009C301.939 10.2601 302.809 11.0901 304.119 11.0901C304.839 11.0901 305.469 10.8201 305.919 10.5001L305.579 9.92009C305.229 10.1801 304.769 10.4001 304.329 10.4001C303.359 10.4001 302.619 9.79009 302.819 8.36009H306.439C306.509 8.15009 306.629 7.72009 306.629 7.27009C306.629 6.12009 306.159 5.26009 304.919 5.26009C303.469 5.26009 301.949 6.68009 301.949 8.77009M295.679 10.9601H296.549L297.339 7.03009C298.039 6.33009 298.579 6.02009 299.009 6.02009C299.579 6.02009 299.829 6.32009 299.829 6.88009C299.829 7.07009 299.799 7.23009 299.739 7.53009L299.049 10.9601H299.919L300.629 7.41009C300.699 7.10009 300.719 6.91009 300.719 6.64009C300.719 5.78009 300.339 5.26009 299.409 5.26009C298.729 5.26009 298.129 5.66009 297.499 6.20009H297.459L297.639 5.51009L298.189 2.82009H297.309L295.679 10.9601ZM293.449 11.1001C293.879 11.1001 294.249 10.9601 294.499 10.8501L294.309 10.2201C294.139 10.3001 293.939 10.3901 293.729 10.3901C293.199 10.3901 293.019 10.1601 293.019 9.70009C293.019 9.55009 293.029 9.43009 293.049 9.29009L293.699 6.11009H295.129L295.269 5.40009H293.859L294.169 3.87009H293.429L293.019 5.40009L292.149 5.46009L292.029 6.11009H292.839L292.189 9.24009C292.169 9.45009 292.129 9.63009 292.129 9.86009C292.129 10.5501 292.479 11.0901 293.459 11.0901M286.659 6.10009H287.379L286.409 10.9501H287.279L288.249 6.10009H289.379L289.519 5.39009H288.399L288.589 4.44009C288.719 3.79009 289.019 3.38009 289.529 3.38009C289.789 3.38009 289.989 3.47009 290.149 3.57009L290.459 2.94009C290.189 2.78009 289.879 2.67009 289.479 2.67009C288.539 2.67009 287.949 3.34009 287.719 4.47009L287.539 5.40009L286.799 5.46009L286.669 6.11009L286.659 6.10009ZM282.359 10.3601C281.589 10.3601 281.169 9.81009 281.169 8.81009C281.169 7.25009 282.179 5.98009 283.189 5.98009C283.959 5.98009 284.379 6.54009 284.379 7.55009C284.379 9.11009 283.379 10.3601 282.349 10.3601M282.259 11.0901C283.779 11.0901 285.269 9.59009 285.269 7.49009C285.269 6.11009 284.479 5.26009 283.279 5.26009C281.759 5.26009 280.279 6.76009 280.279 8.86009C280.279 10.2501 281.059 11.0901 282.259 11.0901ZM276.039 11.0901C276.469 11.0901 276.839 10.9501 277.089 10.8401L276.899 10.2101C276.729 10.2901 276.529 10.3801 276.319 10.3801C275.789 10.3801 275.609 10.1501 275.609 9.69009C275.609 9.54009 275.619 9.42009 275.639 9.28009L276.289 6.10009H277.719L277.859 5.39009H276.449L276.759 3.86009H276.019L275.609 5.39009L274.739 5.45009L274.609 6.10009H275.419L274.769 9.23009C274.749 9.44009 274.709 9.62009 274.709 9.85009C274.709 10.5401 275.059 11.0801 276.039 11.0801M273.259 4.23009C273.609 4.23009 273.919 3.95009 273.919 3.58009C273.919 3.25009 273.659 3.05009 273.359 3.05009C273.009 3.05009 272.699 3.34009 272.699 3.71009C272.699 4.04009 272.959 4.23009 273.259 4.23009ZM271.409 10.9401H272.279L273.399 5.38009H272.519L271.409 10.9401ZM267.099 10.3501C266.479 10.3501 266.079 9.89009 266.079 8.93009C266.079 7.40009 267.109 5.98009 268.219 5.98009C268.639 5.98009 269.029 6.22009 269.349 6.80009L268.849 9.28009C268.289 10.0001 267.679 10.3401 267.099 10.3401M269.539 6.05009H269.509C269.239 5.56009 268.789 5.24009 268.189 5.24009C266.639 5.24009 265.179 6.92009 265.179 9.06009C265.179 10.3601 265.809 11.0701 266.779 11.0701C267.479 11.0701 268.169 10.6801 268.709 10.1101H268.749L268.659 10.9301H269.379L271.029 2.79009H270.149L269.719 4.96009L269.539 6.05009ZM260.369 7.74009C260.659 6.64009 261.459 5.93009 262.269 5.93009C263.079 5.93009 263.349 6.54009 263.349 7.17009C263.349 7.39009 263.329 7.56009 263.289 7.74009H260.369ZM259.399 8.75009C259.399 10.2401 260.269 11.0701 261.579 11.0701C262.299 11.0701 262.929 10.8001 263.379 10.4801L263.039 9.90009C262.689 10.1601 262.229 10.3801 261.789 10.3801C260.819 10.3801 260.069 9.77009 260.279 8.34009H263.899C263.969 8.13009 264.089 7.70009 264.089 7.25009C264.089 6.10009 263.619 5.24009 262.379 5.24009C260.929 5.24009 259.409 6.66009 259.409 8.75009M255.259 10.9401H256.129L256.829 7.43009C257.299 6.53009 257.919 6.03009 258.459 6.03009C258.669 6.03009 258.829 6.06009 258.939 6.12009L259.249 5.34009C259.089 5.27009 258.929 5.24009 258.719 5.24009C258.039 5.24009 257.439 5.77009 256.989 6.44009H256.949L257.069 5.38009H256.349L255.249 10.9401H255.259ZM252.229 11.0801C253.039 11.0801 253.609 10.7401 254.019 10.4301L253.629 9.86009C253.289 10.1201 252.889 10.3501 252.389 10.3501C251.509 10.3501 251.069 9.80009 251.069 8.80009C251.069 7.28009 252.109 5.97009 253.219 5.97009C253.649 5.97009 253.919 6.13009 254.199 6.47009L254.709 5.92009C254.379 5.54009 253.929 5.25009 253.269 5.25009C251.659 5.25009 250.169 6.78009 250.169 8.85009C250.169 10.2701 250.999 11.0801 252.219 11.0801M243.799 10.3501C243.179 10.3501 242.779 9.89009 242.779 8.93009C242.779 7.40009 243.809 5.98009 244.919 5.98009C245.339 5.98009 245.729 6.22009 246.049 6.80009L245.549 9.28009C244.989 10.0001 244.379 10.3401 243.799 10.3401M246.239 6.05009H246.209C245.939 5.56009 245.489 5.24009 244.889 5.24009C243.349 5.24009 241.879 6.92009 241.879 9.06009C241.879 10.3601 242.509 11.0701 243.479 11.0701C244.179 11.0701 244.879 10.6801 245.409 10.1101H245.449L245.359 10.9301H246.079L247.729 2.79009H246.849L246.419 4.96009L246.239 6.05009ZM235.569 10.9301H236.439L237.229 7.00009C237.929 6.30009 238.459 5.99009 238.899 5.99009C239.469 5.99009 239.719 6.29009 239.719 6.85009C239.719 7.04009 239.689 7.20009 239.629 7.50009L238.939 10.9301H239.809L240.519 7.38009C240.589 7.07009 240.609 6.88009 240.609 6.61009C240.609 5.75009 240.229 5.23009 239.289 5.23009C238.589 5.23009 237.969 5.65009 237.349 6.20009H237.299L237.379 5.37009H236.659L235.559 10.9301H235.569ZM231.249 10.3401C230.629 10.3401 230.229 9.88009 230.229 8.92009C230.229 7.39009 231.259 5.97009 232.369 5.97009C232.789 5.97009 233.179 6.21009 233.499 6.79009L232.999 9.27009C232.449 9.99009 231.829 10.3301 231.249 10.3301M230.929 11.0601C231.629 11.0601 232.319 10.6701 232.859 10.1001H232.899L232.809 10.9201H233.529L234.639 5.36009H233.929L233.709 6.05009H233.669C233.409 5.55009 232.929 5.22009 232.329 5.22009C230.789 5.22009 229.319 6.90009 229.319 9.04009C229.319 10.3401 229.949 11.0501 230.919 11.0501M221.089 10.9101H221.959L222.749 6.98009C223.449 6.28009 223.979 5.97009 224.419 5.97009C224.989 5.97009 225.239 6.27009 225.239 6.83009C225.239 7.02009 225.209 7.18009 225.149 7.48009L224.459 10.9101H225.329L226.039 7.36009C226.109 7.05009 226.129 6.86009 226.129 6.59009C226.129 5.73009 225.749 5.21009 224.809 5.21009C224.129 5.21009 223.529 5.61009 222.899 6.15009H222.849L223.029 5.46009L223.579 2.77009H222.699L221.069 10.9101H221.089ZM218.859 11.0501C219.289 11.0501 219.659 10.9101 219.909 10.8001L219.719 10.1701C219.549 10.2501 219.349 10.3401 219.139 10.3401C218.609 10.3401 218.429 10.1101 218.429 9.65009C218.429 9.50009 218.439 9.38009 218.459 9.24009L219.109 6.06009H220.539L220.679 5.35009H219.269L219.579 3.82009H218.839L218.429 5.35009L217.559 5.41009L217.429 6.06009H218.239L217.589 9.19009C217.569 9.40009 217.529 9.58009 217.529 9.81009C217.529 10.5001 217.879 11.0401 218.859 11.0401M216.079 4.19009C216.429 4.19009 216.739 3.91009 216.739 3.54009C216.739 3.21009 216.479 3.01009 216.179 3.01009C215.829 3.01009 215.519 3.30009 215.519 3.67009C215.519 4.00009 215.779 4.19009 216.079 4.19009ZM214.229 10.9001H215.099L216.219 5.34009H215.339L214.229 10.9001ZM209.899 10.3101C209.279 10.3101 208.879 9.85009 208.879 8.89009C208.879 7.36009 209.909 5.94009 211.019 5.94009C211.439 5.94009 211.829 6.18009 212.149 6.76009L211.649 9.24009C211.099 9.96009 210.479 10.3001 209.899 10.3001M209.579 11.0301C210.279 11.0301 210.969 10.6401 211.509 10.0701H211.549L211.459 10.8901H212.179L213.289 5.33009H212.579L212.359 6.02009H212.319C212.059 5.52009 211.579 5.19009 210.979 5.19009C209.429 5.19009 207.969 6.87009 207.969 9.01009C207.969 10.3101 208.599 11.0201 209.569 11.0201M204.889 6.03009H205.609L204.639 10.8801H205.509L206.479 6.03009H207.609L207.749 5.32009H206.629L206.819 4.37009C206.949 3.72009 207.249 3.31009 207.759 3.31009C208.019 3.31009 208.219 3.40009 208.379 3.50009L208.689 2.87009C208.409 2.71009 208.109 2.60009 207.709 2.60009C206.769 2.60009 206.179 3.27009 205.949 4.40009L205.769 5.33009L205.029 5.39009L204.899 6.04009L204.889 6.03009ZM200.359 11.0201C200.599 11.0201 200.759 10.9901 200.909 10.9301V10.2601C200.799 10.2901 200.759 10.2901 200.719 10.2901C200.599 10.2901 200.529 10.2201 200.529 10.0801C200.529 10.0401 200.529 9.98009 200.549 9.86009L201.979 2.73009H201.099L199.689 9.81009C199.639 10.0001 199.619 10.1601 199.619 10.2901C199.619 10.7501 199.869 11.0101 200.359 11.0101M197.389 11.0101C197.629 11.0101 197.789 10.9801 197.939 10.9201V10.2501C197.819 10.2801 197.789 10.2801 197.749 10.2801C197.629 10.2801 197.559 10.2101 197.559 10.0701C197.559 10.0301 197.559 9.97009 197.579 9.85009L199.009 2.72009H198.129L196.719 9.80009C196.669 9.99009 196.649 10.1501 196.649 10.2801C196.649 10.7401 196.899 11.0001 197.399 11.0001M195.609 5.31009H194.739L193.949 9.24009C193.269 9.94009 192.739 10.2501 192.299 10.2501C191.729 10.2501 191.479 9.95009 191.479 9.39009C191.479 9.20009 191.509 9.04009 191.569 8.74009L192.269 5.31009H191.389L190.679 8.86009C190.609 9.16009 190.589 9.36009 190.589 9.63009C190.589 10.4701 190.969 11.0101 191.899 11.0101C192.579 11.0101 193.219 10.5701 193.819 10.0301H193.859L193.769 10.8701H194.489L195.599 5.31009H195.609ZM187.239 6.02009H187.959L186.989 10.8701H187.859L188.829 6.02009H189.959L190.099 5.31009H188.979L189.169 4.36009C189.299 3.71009 189.599 3.30009 190.109 3.30009C190.369 3.30009 190.569 3.39009 190.729 3.49009L191.039 2.86009C190.759 2.70009 190.459 2.59009 190.059 2.59009C189.119 2.59009 188.529 3.26009 188.299 4.39009L188.119 5.32009L187.379 5.38009L187.249 6.03009L187.239 6.02009ZM180.189 7.68009C180.479 6.58009 181.279 5.87009 182.089 5.87009C182.899 5.87009 183.169 6.48009 183.169 7.11009C183.169 7.33009 183.149 7.50009 183.109 7.68009H180.189ZM179.219 8.69009C179.219 10.1801 180.089 11.0101 181.399 11.0101C182.119 11.0101 182.749 10.7401 183.199 10.4201L182.859 9.84009C182.509 10.1001 182.049 10.3201 181.609 10.3201C180.639 10.3201 179.889 9.71009 180.099 8.28009H183.719C183.789 8.07009 183.909 7.64009 183.909 7.19009C183.909 6.04009 183.439 5.18009 182.199 5.18009C180.749 5.18009 179.229 6.60009 179.229 8.69009M172.969 10.8801H173.839L174.629 6.95009C175.329 6.25009 175.859 5.94009 176.299 5.94009C176.869 5.94009 177.119 6.24009 177.119 6.80009C177.119 6.99009 177.089 7.15009 177.029 7.45009L176.339 10.8801H177.209L177.919 7.33009C177.989 7.02009 178.009 6.83009 178.009 6.56009C178.009 5.70009 177.629 5.18009 176.689 5.18009C176.009 5.18009 175.409 5.58009 174.779 6.12009H174.729L174.909 5.43009L175.459 2.74009H174.579L172.949 10.8801H172.969ZM170.739 11.0201C171.169 11.0201 171.539 10.8801 171.789 10.7701L171.599 10.1401C171.429 10.2201 171.229 10.3101 171.019 10.3101C170.489 10.3101 170.309 10.0801 170.309 9.62009C170.309 9.47009 170.319 9.35009 170.339 9.21009L170.989 6.03009H172.419L172.559 5.32009H171.149L171.459 3.79009H170.719L170.309 5.32009L169.439 5.38009L169.309 6.03009H170.119L169.469 9.16009C169.449 9.37009 169.409 9.55009 169.409 9.78009C169.409 10.4701 169.759 11.0101 170.739 11.0101M161.239 13.2601C162.299 13.2601 162.979 12.4301 163.559 11.3401L166.829 5.31009H165.959L164.359 8.43009C164.089 8.96009 163.799 9.56009 163.539 10.0901H163.499C163.449 9.56009 163.399 8.94009 163.319 8.43009L162.889 5.31009H162.019L162.969 10.8801L162.759 11.2801C162.379 12.0501 161.869 12.5501 161.309 12.5501C161.159 12.5501 161.029 12.5201 160.899 12.4501L160.609 13.1001C160.829 13.2201 161.089 13.2601 161.249 13.2601M158.829 5.90009C159.459 5.90009 159.849 6.37009 159.849 7.31009C159.849 8.86009 158.829 10.2701 157.719 10.2701C157.289 10.2701 156.899 10.0301 156.589 9.45009L157.119 6.81009C157.649 6.25009 158.319 5.91009 158.829 5.91009M156.149 10.8801L156.379 10.1801H156.409C156.669 10.6801 157.149 11.0101 157.749 11.0101C159.279 11.0101 160.749 9.33009 160.749 7.19009C160.749 5.88009 160.119 5.18009 159.149 5.18009C158.459 5.18009 157.809 5.56009 157.259 6.00009H157.239L157.489 4.90009L157.939 2.73009H157.059L155.429 10.8701H156.149V10.8801ZM149.129 10.2901C148.509 10.2901 148.109 9.83009 148.109 8.87009C148.109 7.34009 149.139 5.92009 150.249 5.92009C150.669 5.92009 151.059 6.16009 151.379 6.74009L150.879 9.22009C150.319 9.94009 149.709 10.2801 149.129 10.2801M151.569 5.99009H151.539C151.269 5.50009 150.819 5.18009 150.219 5.18009C148.679 5.18009 147.209 6.86009 147.209 9.00009C147.209 10.3001 147.839 11.0101 148.809 11.0101C149.509 11.0101 150.209 10.6201 150.739 10.0501H150.779L150.689 10.8701H151.409L153.059 2.73009H152.179L151.749 4.90009L151.569 5.99009ZM142.399 7.68009C142.689 6.58009 143.489 5.87009 144.299 5.87009C145.109 5.87009 145.379 6.48009 145.379 7.11009C145.379 7.33009 145.359 7.50009 145.319 7.68009H142.399ZM141.429 8.69009C141.429 10.1801 142.299 11.0101 143.619 11.0101C144.339 11.0101 144.969 10.7401 145.419 10.4201L145.079 9.84009C144.729 10.1001 144.269 10.3201 143.829 10.3201C142.859 10.3201 142.109 9.71009 142.319 8.28009H145.939C146.009 8.07009 146.129 7.64009 146.129 7.19009C146.129 6.04009 145.659 5.18009 144.419 5.18009C142.969 5.18009 141.449 6.60009 141.449 8.69009M135.799 10.8801H136.669L136.969 9.47009L138.249 8.17009L139.309 10.8801H140.199L138.859 7.64009L141.079 5.32009H140.069L137.219 8.26009H137.199L138.299 2.73009H137.419L135.789 10.8701L135.799 10.8801ZM132.769 11.0201C133.579 11.0201 134.159 10.6801 134.559 10.3701L134.169 9.80009C133.829 10.0601 133.429 10.2901 132.929 10.2901C132.049 10.2901 131.609 9.74009 131.609 8.74009C131.609 7.22009 132.649 5.91009 133.759 5.91009C134.189 5.91009 134.459 6.07009 134.739 6.41009L135.259 5.86009C134.929 5.48009 134.479 5.19009 133.819 5.19009C132.209 5.19009 130.719 6.72009 130.719 8.79009C130.719 10.2101 131.549 11.0201 132.769 11.0201ZM126.329 10.2901C125.709 10.2901 125.309 9.83009 125.309 8.87009C125.309 7.34009 126.339 5.92009 127.449 5.92009C127.869 5.92009 128.259 6.16009 128.579 6.74009L128.079 9.22009C127.529 9.94009 126.909 10.2801 126.329 10.2801M126.009 11.0101C126.709 11.0101 127.399 10.6201 127.939 10.0501H127.979L127.889 10.8701H128.609L129.719 5.31009H129.009L128.789 6.00009H128.749C128.489 5.50009 128.009 5.17009 127.409 5.17009C125.859 5.17009 124.399 6.85009 124.399 8.99009C124.399 10.2901 125.029 11.0001 125.999 11.0001M118.459 10.1701L119.049 7.24009H120.379C121.489 7.24009 122.089 7.76009 122.089 8.51009C122.089 9.68009 121.189 10.1701 119.759 10.1701H118.459ZM119.179 6.59009L119.679 4.06009H120.719C121.849 4.06009 122.359 4.46009 122.359 5.15009C122.359 6.00009 121.689 6.59009 120.259 6.59009H119.179ZM117.439 10.8701H119.839C121.629 10.8701 122.959 10.1401 122.959 8.47009C122.959 7.61009 122.349 7.13009 121.579 6.95009V6.91009C122.409 6.73009 123.259 6.05009 123.259 5.03009C123.259 3.94009 122.379 3.37009 120.939 3.37009H118.939L117.439 10.8701ZM111.819 8.33009H114.309L114.459 7.66009H111.959L111.819 8.33009ZM105.469 10.2801C104.849 10.2801 104.449 9.82009 104.449 8.86009C104.449 7.33009 105.479 5.91009 106.589 5.91009C107.009 5.91009 107.399 6.15009 107.719 6.73009L107.219 9.21009C106.659 9.93009 106.049 10.2701 105.469 10.2701M107.909 5.98009H107.879C107.609 5.49009 107.159 5.17009 106.559 5.17009C105.009 5.17009 103.549 6.85009 103.549 8.99009C103.549 10.2901 104.179 11.0001 105.149 11.0001C105.849 11.0001 106.539 10.6101 107.079 10.0401H107.119L107.029 10.8601H107.749L109.399 2.72009H108.519L108.089 4.89009L107.909 5.98009ZM98.739 7.67009C99.029 6.57009 99.829 5.86009 100.639 5.86009C101.449 5.86009 101.719 6.47009 101.719 7.10009C101.719 7.32009 101.699 7.49009 101.659 7.67009H98.739ZM97.769 8.68009C97.769 10.1701 98.639 11.0001 99.949 11.0001C100.669 11.0001 101.299 10.7301 101.749 10.4101L101.409 9.83009C101.059 10.0901 100.599 10.3101 100.159 10.3101C99.189 10.3101 98.439 9.70009 98.649 8.27009H102.269C102.339 8.06009 102.459 7.63009 102.459 7.18009C102.459 6.03009 101.989 5.17009 100.749 5.17009C99.299 5.17009 97.779 6.59009 97.779 8.68009M93.629 10.8701H94.499L95.199 7.36009C95.669 6.46009 96.289 5.96009 96.829 5.96009C97.039 5.96009 97.199 5.99009 97.309 6.05009L97.619 5.27009C97.459 5.20009 97.299 5.17009 97.089 5.17009C96.409 5.17009 95.809 5.70009 95.359 6.37009H95.319L95.439 5.31009H94.719L93.619 10.8701H93.629ZM92.699 5.31009H91.829L91.039 9.24009C90.359 9.94009 89.829 10.2501 89.389 10.2501C88.819 10.2501 88.569 9.95009 88.569 9.39009C88.569 9.20009 88.599 9.04009 88.659 8.74009L89.359 5.31009H88.479L87.769 8.86009C87.699 9.16009 87.679 9.36009 87.679 9.63009C87.679 10.4701 88.059 11.0101 88.989 11.0101C89.669 11.0101 90.309 10.5701 90.909 10.0301H90.949L90.859 10.8701H91.579L92.689 5.31009H92.699ZM84.179 11.0001C85.379 11.0001 86.259 10.3301 86.259 9.29009C86.259 8.68009 85.949 8.26009 84.959 7.71009C84.459 7.43009 83.979 7.19009 83.979 6.72009C83.979 6.25009 84.439 5.85009 85.029 5.85009C85.529 5.85009 85.889 6.09009 86.179 6.40009L86.679 5.91009C86.269 5.48009 85.719 5.17009 85.049 5.17009C84.009 5.17009 83.139 5.84009 83.139 6.83009C83.139 7.46009 83.549 7.88009 84.409 8.35009C85.189 8.77009 85.429 9.00009 85.429 9.40009C85.429 9.90009 84.889 10.3301 84.249 10.3301C83.669 10.3301 83.159 10.0001 82.819 9.52009L82.269 9.96009C82.649 10.5401 83.439 11.0101 84.179 11.0101M76.449 10.8701H77.319L78.109 6.94009C78.809 6.24009 79.349 5.93009 79.779 5.93009C80.349 5.93009 80.609 6.23009 80.609 6.79009C80.609 6.98009 80.579 7.14009 80.519 7.44009L79.829 10.8701H80.699L81.409 7.32009C81.479 7.01009 81.499 6.82009 81.499 6.55009C81.499 5.69009 81.119 5.17009 80.189 5.17009C79.489 5.17009 78.869 5.59009 78.239 6.14009H78.199L78.279 5.31009H77.559L76.459 10.8701H76.449ZM73.409 10.8701H74.299L75.799 3.37009H74.909L73.409 10.8701ZM69.559 8.33009H72.049L72.199 7.66009H69.699L69.559 8.33009ZM66.309 11.0101C67.209 11.0101 67.909 10.6201 68.459 10.1401L68.059 9.57009C67.569 9.98009 67.079 10.2401 66.469 10.2401C65.119 10.2401 64.559 9.26009 64.559 7.89009C64.559 6.07009 65.689 3.99009 67.479 3.99009C68.049 3.99009 68.449 4.32009 68.749 4.80009L69.369 4.33009C68.999 3.69009 68.389 3.22009 67.529 3.22009C65.209 3.22009 63.649 5.61009 63.649 7.97009C63.649 9.77009 64.599 11.0001 66.309 11.0001M60.309 10.8601H61.199L62.699 3.36009H61.809L60.309 10.8601ZM54.329 10.1301L55.539 4.08009H56.159C57.669 4.08009 58.469 4.93009 58.469 6.35009C58.469 8.58009 57.259 10.1401 55.309 10.1401H54.329V10.1301ZM53.299 10.8601H55.309C57.849 10.8601 59.369 9.01009 59.369 6.28009C59.369 4.44009 58.269 3.35009 56.189 3.35009H54.789L53.289 10.8501L53.299 10.8601ZM47.709 10.8601H48.599L49.289 7.46009H52.039L52.189 6.71009H49.429L49.949 4.10009H53.209L53.359 3.36009H49.219L47.719 10.8601H47.709Z" fill="#231F20"/>
</g>
</g>
<defs>
<clipPath id="clip0_3570_313">
<rect width="390" height="16" fill="white" transform="translate(0.689453)"/>
</clipPath>
</defs>
</svg>
