<svg width="456" height="32" viewBox="0 0 456 32" fill="none" xmlns="http://www.w3.org/2000/svg">
<g clip-path="url(#clip0_3570_295)">
<path d="M401.316 28.2138V5.73254C401.776 5.5935 413.733 5.56141 414.503 5.70045C415.883 10.8983 417.274 16.1283 418.664 21.3475C418.707 21.3475 418.739 21.3475 418.782 21.3475C418.824 20.7058 418.792 20.0641 418.803 19.4331C418.803 18.7914 418.803 18.1496 418.803 17.5079V5.75393C419.274 5.60419 425.509 5.56141 426.268 5.68976C426.386 6.12826 426.418 27.4652 426.29 28.2245H413.38C412.653 25.5293 411.915 22.8341 411.177 20.139C410.45 17.4545 409.712 14.77 408.974 12.0855C408.931 12.0855 408.878 12.0962 408.835 12.1069V28.1496C408.364 28.278 402.364 28.3208 401.295 28.2138" fill="#253353"/>
<path d="M355.454 14.2568C356.609 14.2782 357.711 14.3531 358.802 14.1712C359.165 14.1178 359.529 13.9787 359.85 13.8076C360.62 13.4012 360.973 12.6204 360.823 11.7434C360.652 10.7702 360.064 10.1285 358.994 10.0001C357.989 9.87177 356.962 9.90385 355.946 9.86107C355.796 9.86107 355.647 9.89316 355.465 9.90385V14.2461L355.454 14.2568ZM355.454 23.5616C356.545 23.5616 357.593 23.6151 358.62 23.5402C359.112 23.5081 359.614 23.2942 360.064 23.0589C360.823 22.6418 361.165 21.9359 361.101 21.0589C361.037 20.1498 360.588 19.5081 359.732 19.2301C359.379 19.1124 359.005 19.0162 358.641 18.9948C357.679 18.952 356.716 18.9627 355.754 18.9627C355.657 18.9627 355.572 18.9948 355.454 19.0055V23.5616ZM347.219 28.2568V5.67926C347.411 5.65786 347.604 5.63647 347.786 5.63647C352.481 5.63647 357.187 5.63647 361.882 5.63647C363.219 5.63647 364.545 5.7969 365.828 6.2568C366.16 6.37444 366.491 6.51348 366.802 6.67391C368.77 7.73273 369.529 9.40118 369.443 11.5723C369.433 11.9145 369.379 12.2568 369.315 12.5883C369.037 14.0322 368.256 15.1231 366.994 15.829C366.449 16.1391 365.839 16.3317 365.272 16.5883C365.133 16.6418 364.994 16.6953 364.759 16.7916C365.219 16.9199 365.582 16.9948 365.935 17.1124C367.294 17.5616 368.352 18.3851 369.165 19.5937C370.449 21.5081 370.064 25.8076 367.08 27.2194C365.978 27.7434 364.823 28.0322 363.625 28.1285C362.491 28.2247 361.347 28.2568 360.213 28.2675C356.139 28.2889 352.074 28.2675 348 28.2675H347.219V28.2568Z" fill="#253353"/>
<path d="M455.38 28.2461H445.07C443.199 25.091 441.359 21.9038 439.487 18.7488C439.445 18.7595 439.391 18.7808 439.348 18.7915V28.214H430.824C430.696 27.8076 430.642 6.81293 430.771 5.74341C431.188 5.60437 438.6 5.56159 439.338 5.72202V14.3637C439.338 14.3637 439.434 14.3958 439.487 14.4172C439.594 14.2461 439.712 14.075 439.819 13.9038C441.37 11.3584 442.921 8.83432 444.45 6.27817C444.739 5.78619 445.06 5.62576 445.605 5.62576C448.375 5.65785 451.145 5.63646 453.915 5.63646H454.525C454.546 5.71132 454.557 5.73271 454.557 5.74341C454.557 5.7648 454.557 5.78619 454.557 5.79688C454.536 5.85036 454.503 5.90384 454.471 5.95731C452.044 9.34769 449.616 12.7488 447.177 16.1391C447.167 16.1498 447.156 16.1712 447.124 16.2568C449.84 20.1926 452.578 24.1712 455.38 28.2461Z" fill="#253353"/>
<path d="M387.208 17.8931C386.373 15.3904 385.582 12.9733 384.758 10.5669C384.716 10.5669 384.662 10.5669 384.619 10.5669C383.796 12.984 382.983 15.4118 382.149 17.8931H387.218H387.208ZM390.844 5.62573C393.55 13.1872 396.245 20.6846 398.951 28.2354H389.817C389.315 26.6097 388.823 24.9947 388.32 23.369H380.93C380.459 24.984 379.999 26.599 379.528 28.2247H370.887C370.983 27.9252 371.058 27.6578 371.154 27.4011C373.635 20.353 376.127 13.2942 378.619 6.24605C378.823 5.65782 378.684 5.62573 379.486 5.62573C383.058 5.62573 386.63 5.62573 390.202 5.62573H390.855H390.844Z" fill="#253353"/>
<path d="M47.9251 10.631V15.4331C48.6417 15.5508 51.2727 15.5294 51.8823 15.3796C52.1497 15.3155 52.4385 15.262 52.6524 15.1123C52.9518 14.9091 53.2834 14.6631 53.4652 14.3636C54.3636 12.8663 53.5829 11.0909 51.9037 10.77C50.5989 10.524 49.2941 10.6845 47.9251 10.6417M57.1123 17.6898C57.4331 17.7861 57.6363 17.8395 57.8396 17.893C59.5829 18.4171 60.8663 19.4866 61.4331 21.2941C61.7005 22.1497 61.9037 23.0267 62.0962 23.9037C62.4064 25.3262 62.6738 26.7593 62.9519 28.1818C62.5989 28.2887 54.8984 28.3315 53.9572 28.2032C53.893 27.8395 53.8289 27.4545 53.7647 27.0695C53.5615 25.7005 53.3904 24.3315 53.1658 22.9732C53.0909 22.524 52.9198 22.0855 52.7273 21.6791C52.4385 21.0588 51.9144 20.6845 51.2513 20.6203C50.2994 20.5347 49.3369 20.524 48.3101 20.4706C48.2887 20.7807 48.2567 21.0053 48.2567 21.2406C48.2567 23.3048 48.2567 25.369 48.2567 27.4331V28.1283C47.7968 28.2994 40.4278 28.3422 39.5508 28.2032V5.66842C39.6684 5.64703 39.7968 5.60425 39.9251 5.60425C44.9519 5.60425 49.9679 5.60425 54.9946 5.63633C56.1711 5.63633 57.3369 5.83954 58.4706 6.21387C58.77 6.31013 59.0588 6.41708 59.3476 6.54542C61.4438 7.46521 62.4813 9.12297 62.5454 11.4224C62.6096 14 61.4866 15.8395 59.1765 16.8984C58.6738 17.123 58.1497 17.2834 57.6363 17.4759C57.4973 17.5294 57.3583 17.5829 57.1123 17.6791" fill="#253353"/>
<path d="M84.2671 5.97854V11.7432C84.0211 11.6684 83.8179 11.6149 83.6147 11.5507C81.2297 10.8021 78.7912 10.524 76.2992 10.663C75.8286 10.6844 75.3687 10.7807 74.9088 10.909C74.6201 10.9946 74.3206 11.155 74.0853 11.3475C73.5826 11.786 73.5933 12.5026 74.1174 12.909C74.4276 13.1443 74.7912 13.3368 75.1655 13.4331C76.2671 13.7112 77.3794 13.9358 78.4917 14.1711C79.7752 14.4491 81.0586 14.7486 82.2457 15.3368C83.7752 16.0855 84.9623 17.1871 85.4436 18.8983C86.2137 21.647 85.7538 25.1764 82.2137 27.0908C80.8447 27.8288 79.3794 28.2352 77.8607 28.4598C75.4222 28.8235 72.973 28.77 70.5345 28.4705C68.9195 28.278 67.326 27.9785 65.7217 27.7112C65.572 27.6898 65.4222 27.6256 65.2297 27.5721V21.7967C65.4329 21.8609 65.6254 21.9144 65.8072 21.9785C68.4703 22.9197 71.2083 23.3368 74.0211 23.1871C74.5452 23.155 75.0693 23.0374 75.5826 22.9304C75.8286 22.8769 76.0639 22.77 76.2885 22.6416C76.6629 22.4384 76.9623 22.1604 76.973 21.6684C76.9837 21.155 76.7056 20.8449 76.3099 20.6203C75.5933 20.2138 74.8019 20.0748 74.0211 19.893C72.6736 19.5721 71.3046 19.2834 69.9677 18.9197C69.0158 18.663 68.1388 18.2245 67.3367 17.6256C66.0318 16.6523 65.2939 15.3475 65.0586 13.7112C64.9302 12.7914 64.9409 11.8716 65.1228 10.9625C65.4757 9.24057 66.449 7.95715 67.9035 7.03737C69.1121 6.2887 70.4276 5.86089 71.8072 5.60421C74.3634 5.11223 76.9516 5.09084 79.5399 5.31544C80.9088 5.43309 82.2671 5.64699 83.6254 5.82881C83.8179 5.8502 84.0104 5.90368 84.2564 5.96785" fill="#253353"/>
<path d="M8.72727 20.1283V28.1283C8.26738 28.2887 0.705882 28.3315 0 28.1817V5.64697H19.4438V10.9946H8.84492C8.69519 11.4652 8.65241 13.6791 8.77005 14.7058C9.3262 14.77 9.90374 14.7272 10.4813 14.7379C11.0481 14.7379 11.615 14.7379 12.1818 14.7379H19.123V20.1283H8.71658H8.72727Z" fill="#253353"/>
<path d="M103.958 28.2246H95.1768V12.3208C94.9094 12.2994 94.6848 12.278 94.4602 12.278C92.3533 12.278 90.2463 12.278 88.1287 12.278C87.8934 12.278 87.6688 12.2567 87.4121 12.246V5.7219C87.4121 5.7219 87.4442 5.68981 87.4549 5.66842C87.4656 5.65772 87.487 5.63633 87.4977 5.63633C87.5939 5.62564 87.6902 5.60425 87.7864 5.60425C95.6902 5.60425 103.594 5.60425 111.498 5.60425C111.551 5.60425 111.605 5.63633 111.701 5.65772V12.2674C110.407 12.2674 109.134 12.2674 107.861 12.2674C106.589 12.2674 105.305 12.2674 103.958 12.2674V28.2139V28.2246Z" fill="#253353"/>
<path d="M24.5878 32V7.6578C23.668 7.47598 22.791 7.31555 21.914 7.14443L21.8926 7.03748C26.4166 4.70593 30.9407 2.37438 35.5396 0.0107422C35.5503 0.299512 35.5717 0.492026 35.5717 0.695234C35.5717 9.06957 35.5717 17.4332 35.5824 25.8075C35.5824 26.2888 35.4327 26.5134 35.037 26.7166C31.7321 28.3958 28.4273 30.0963 25.1225 31.7861C24.9728 31.861 24.8124 31.9145 24.5878 32.0107" fill="#C2002F"/>
<path d="M202.695 17.8502C203.411 17.9892 207.379 17.9571 207.839 17.8074C207.005 15.3903 206.203 12.9518 205.347 10.5454C205.304 10.5454 205.261 10.5454 205.219 10.5561C204.374 12.9839 203.539 15.4117 202.695 17.8502ZM199.251 5.64698H211.593C214.342 13.0801 217.058 20.524 219.807 27.9571C219.85 27.9571 219.903 27.9358 219.946 27.9251V5.74324C220.427 5.6042 232.555 5.56142 233.358 5.68976C234.769 10.909 236.181 16.1497 237.593 21.3903C237.646 21.3903 237.7 21.3796 237.743 21.3689V5.66837H245.379V28.1603C244.93 28.2887 233.55 28.3422 232.224 28.2138C230.737 22.8555 229.251 17.4759 227.753 12.0855C227.711 12.0855 227.668 12.0855 227.636 12.0855C227.582 12.5347 227.614 12.9946 227.614 13.4545C227.614 13.9571 227.614 14.4598 227.614 14.9518V28.2031H210.523C210.021 26.6095 209.507 25.0053 208.994 23.3689C208.769 23.3689 208.566 23.3475 208.374 23.3475C206.267 23.3475 204.17 23.3475 202.063 23.3475C201.411 23.3475 201.411 23.3475 201.219 23.9999C200.855 25.2299 200.502 26.4598 200.138 27.6898C200.085 27.8609 200.031 28.032 199.967 28.2245H191.219C191.219 28.2245 191.186 28.1924 191.176 28.171C191.176 28.1497 191.154 28.1283 191.165 28.1176C191.165 28.0641 191.165 27.9999 191.197 27.9464C193.871 20.5347 196.555 13.1229 199.251 5.65768" fill="#253353"/>
<path d="M177.004 28.214C175.539 22.8236 174.074 17.444 172.598 12.0643L172.448 12.0857V28.214H164.908V5.74343C164.908 5.74343 164.93 5.71134 164.94 5.70065C164.951 5.68995 164.972 5.66856 164.983 5.66856C165.058 5.65787 165.133 5.63647 165.218 5.63647C169.422 5.63647 173.625 5.63647 177.817 5.63647C177.892 5.63647 177.967 5.66856 178.095 5.68995C179.475 10.8664 180.865 16.0536 182.277 21.3584C182.459 21.0375 182.406 20.8022 182.406 20.5883C182.406 15.8825 182.406 11.1766 182.406 6.46V5.65786H189.849C189.999 6.10706 190.031 27.4333 189.892 28.2033H176.983L177.004 28.214Z" fill="#253353"/>
<path d="M294.46 10.6096C294.46 10.6096 294.364 10.6096 294.321 10.6096C293.487 13.016 292.674 15.4331 291.851 17.9358C293.583 17.9358 295.209 17.9358 296.91 17.9358C296.075 15.4224 295.263 13.016 294.46 10.6203M299.509 28.2246C299.006 26.5775 298.514 24.9839 298.022 23.3689C297.808 23.3583 297.637 23.3369 297.466 23.3369C295.38 23.3369 293.295 23.3369 291.209 23.3369C290.642 23.3369 290.642 23.3369 290.493 23.8823C290.118 25.1657 289.755 26.4599 289.391 27.7433C289.348 27.893 289.295 28.0427 289.241 28.2139H280.578C283.241 20.6631 285.872 13.1657 288.525 5.65771H300.567C303.263 13.1657 305.947 20.6738 308.653 28.2246H299.519H299.509Z" fill="#253353"/>
<path d="M149.101 5.66846V11.0374H138.384V14.738H148.802C148.834 16.5669 148.802 18.3423 148.812 20.1604H138.363C138.32 22.8663 138.363 25.5187 138.331 28.2032H129.646V5.66846H149.101Z" fill="#253353"/>
<path d="M267.85 5.92506V11.8502C267.358 11.7219 266.899 11.5935 266.439 11.4652C264.61 10.9732 262.77 10.8448 260.941 11.4117C259.198 11.9464 257.861 12.9839 257.262 14.8128C256.727 16.4384 256.834 18.0641 257.562 19.6149C258.353 21.3047 259.776 22.171 261.519 22.5026C263.38 22.8662 265.219 22.6202 267.027 22.0855C267.284 22.0106 267.551 21.9251 267.818 21.8502C267.829 21.8502 267.85 21.8502 267.872 21.8609C267.989 22.278 268.032 26.7272 267.915 27.7967C267.262 27.9464 266.578 28.1069 265.893 28.2459C264.588 28.5133 263.262 28.663 261.936 28.6737C259.187 28.6951 256.514 28.2887 254.032 26.9946C250.588 25.1978 248.61 22.3208 248.128 18.3743C247.915 16.5775 247.989 14.8128 248.535 13.0801C249.348 10.5133 250.973 8.64164 253.23 7.29404C254.995 6.24591 256.92 5.65768 258.941 5.3903C261.53 5.03736 264.096 5.20848 266.653 5.68977C267.038 5.76463 267.423 5.8395 267.872 5.91436" fill="#253353"/>
<path d="M309.818 5.66846H318.513V21.6043C319.743 21.6471 320.909 21.615 322.074 21.6257C323.272 21.6257 324.459 21.6257 325.657 21.6257H329.155C329.304 22.1283 329.336 27.5401 329.197 28.2139H309.86C309.743 27.7861 309.7 6.60963 309.828 5.66846" fill="#253353"/>
<path d="M279.338 28.2139H271.092V5.66846H279.316C279.423 6.11765 279.445 27.4759 279.338 28.2139Z" fill="#253353"/>
<path d="M160.823 28.2247H152.609V5.74342C152.994 5.60439 159.989 5.55091 160.802 5.68995C160.93 6.11776 160.962 27.4333 160.834 28.2247" fill="#253353"/>
</g>
<defs>
<clipPath id="clip0_3570_295">
<rect width="455.38" height="32" fill="white"/>
</clipPath>
</defs>
</svg>
