<svg width="131" height="56" viewBox="0 0 131 56" fill="none" xmlns="http://www.w3.org/2000/svg">
<g clip-path="url(#clip0_2724_6188)">
<path d="M47.8607 30.459C48.3345 30.5514 50.9633 30.5321 51.2652 30.4321C50.715 28.8158 50.1839 27.1957 49.6145 25.5871C49.5878 25.5871 49.5572 25.591 49.5305 25.5948C48.9764 27.2149 48.4186 28.8312 47.8607 30.459ZM45.5835 22.3238H53.764C55.5828 27.2765 57.3863 32.2446 59.205 37.2012C59.2356 37.1935 59.27 37.1858 59.3005 37.1781V22.3854C59.6177 22.2892 67.6531 22.2622 68.188 22.3507C69.1203 25.8296 70.0564 29.3238 70.9964 32.8219C71.0307 32.818 71.0651 32.8142 71.0995 32.8065V22.3276H76.1622V37.3243C75.8642 37.4128 68.3217 37.4475 67.4506 37.3628C66.4686 33.7916 65.479 30.2012 64.4893 26.6108C64.4626 26.6108 64.4359 26.6108 64.4091 26.6108C64.3785 26.9148 64.3976 27.2188 64.3938 27.5228C64.39 27.8576 64.3938 28.1924 64.3938 28.5233V37.3628H53.0686C52.7362 36.3045 52.3962 35.227 52.0523 34.1341C51.9033 34.1264 51.7733 34.1149 51.6396 34.1149C50.2488 34.1149 48.8542 34.1149 47.4595 34.1149C47.1717 34.1149 46.9857 34.2611 46.9017 34.5536C46.661 35.3733 46.4241 36.1929 46.1834 37.0126C46.149 37.1281 46.1108 37.2397 46.0687 37.3705H40.2686C40.2686 37.3705 40.2457 37.3474 40.2418 37.3359C40.238 37.3243 40.2304 37.3089 40.2342 37.2974C40.238 37.2589 40.2418 37.2166 40.2533 37.182C42.0262 32.2369 43.8029 27.2958 45.5873 22.3161" fill="#253353"/>
<path d="M31.1977 37.3705C30.2119 33.78 29.2261 30.1896 28.2365 26.5992C28.2021 26.603 28.1716 26.6069 28.1372 26.6107V37.3705H23.0668V22.3815C23.0668 22.3815 23.0821 22.3622 23.0898 22.3545C23.0974 22.3468 23.1089 22.3353 23.1203 22.3353C23.1738 22.3237 23.2235 22.3083 23.277 22.3083C26.1045 22.3083 28.9281 22.3083 31.7556 22.3083C31.8053 22.3083 31.8588 22.3276 31.9428 22.343C32.8713 25.7987 33.8036 29.2583 34.755 32.7949C34.8811 32.5832 34.8429 32.4254 34.8429 32.2831C34.8429 29.1429 34.8429 26.0027 34.8429 22.8625V22.3314H39.8521C39.9514 22.6278 39.9744 36.8548 39.8789 37.3743H31.1977V37.3705Z" fill="#253353"/>
<path d="M65.33 55.9576V40.9686C65.6395 40.8762 73.6787 40.8532 74.1983 40.9455C75.1268 44.4128 76.0629 47.8955 76.9991 51.382C77.0258 51.382 77.0525 51.382 77.0793 51.3782C77.106 50.9549 77.0869 50.5239 77.0908 50.1005C77.0908 49.6734 77.0908 49.2462 77.0908 48.8191V40.984C77.4117 40.8839 81.6033 40.857 82.1114 40.9417C82.1879 41.2341 82.2108 55.4612 82.1305 55.9692H73.4494C72.9565 54.172 72.4636 52.371 71.9707 50.5777C71.4778 48.7883 70.9811 46.9988 70.4882 45.2055C70.4577 45.2094 70.4271 45.2171 70.3965 45.2209V55.923C70.0832 56.0115 66.0445 56.0384 65.3262 55.9653" fill="#253353"/>
<path d="M35.5192 46.6487C36.2986 46.6641 37.0399 46.7102 37.7735 46.5909C38.0181 46.5525 38.2626 46.4601 38.4842 46.3485C39.0077 46.0791 39.2408 45.5558 39.1414 44.9747C39.0268 44.3282 38.6294 43.901 37.9034 43.8125C37.2233 43.7278 36.5317 43.7471 35.844 43.724C35.7446 43.724 35.6414 43.7432 35.5192 43.7548V46.6525V46.6487ZM35.5192 52.8559C36.2566 52.8559 36.9597 52.8906 37.6551 52.8405C37.9875 52.8174 38.3275 52.6789 38.6256 52.5211C39.1414 52.2479 39.3668 51.7707 39.3248 51.1896C39.2828 50.5855 38.9809 50.1583 38.4001 49.9697C38.1633 49.8928 37.9111 49.8273 37.6665 49.8158C37.017 49.7889 36.3674 49.7966 35.7217 49.7889C35.6606 49.7889 35.5994 49.8081 35.5192 49.8196V52.8559ZM29.9636 55.9884V40.9263C30.0935 40.9148 30.2196 40.8955 30.3457 40.8955C33.517 40.8955 36.6846 40.8917 39.8559 40.8955C40.7615 40.8955 41.6556 40.9994 42.5153 41.3111C42.7407 41.3919 42.9623 41.4804 43.1725 41.592C44.5021 42.2963 45.0141 43.4123 44.953 44.8592C44.9454 45.0863 44.911 45.3133 44.8651 45.5327C44.6741 46.4947 44.1506 47.2221 43.3024 47.6954C42.9356 47.8994 42.5267 48.034 42.137 48.1995C42.0453 48.238 41.9498 48.2765 41.7931 48.3381C42.1064 48.4227 42.351 48.4766 42.5879 48.5497C43.5011 48.846 44.2194 49.3963 44.7658 50.2006C45.6331 51.4744 45.3733 54.3491 43.3559 55.2842C42.6108 55.6305 41.8313 55.8268 41.0251 55.8922C40.2609 55.9538 39.4891 55.9807 38.7211 55.9807C35.9739 55.9923 33.2305 55.9846 30.4832 55.9846H29.9559L29.9636 55.9884Z" fill="#253353"/>
<path d="M60.9474 7.07322V10.275C61.4326 10.3558 63.2094 10.3366 63.6258 10.2403C63.8054 10.198 64.0003 10.1595 64.1493 10.0633C64.3556 9.92863 64.5734 9.76701 64.6957 9.56305C65.3032 8.5625 64.7721 7.37723 63.6373 7.16558C62.7585 7.0001 61.8682 7.10401 60.9474 7.07707M67.164 11.7797C67.3818 11.8412 67.5232 11.8759 67.6607 11.9182C68.8452 12.2684 69.7087 12.9803 70.0946 14.1848C70.278 14.7544 70.4118 15.3431 70.5417 15.9281C70.748 16.8748 70.9276 17.8291 71.1225 18.7835C70.8817 18.8566 65.6738 18.8836 65.0396 18.7989C64.9975 18.5603 64.9517 18.3025 64.9135 18.0408C64.7797 17.1326 64.6613 16.2167 64.5085 15.3124C64.4588 15.016 64.3442 14.7197 64.2143 14.4465C64.0194 14.0309 63.664 13.7808 63.217 13.7423C62.5713 13.6845 61.9217 13.6768 61.2301 13.6422C61.2148 13.8462 61.1957 14.0001 61.1957 14.154C61.1957 15.5317 61.1957 16.9055 61.1957 18.2832V18.745C60.8862 18.8566 55.9038 18.8913 55.3115 18.795V3.75986C55.3879 3.74832 55.4758 3.71753 55.5599 3.71753C58.9567 3.72138 62.3535 3.71753 65.7464 3.74062C66.5412 3.74447 67.3321 3.87916 68.0925 4.12545C68.295 4.19087 68.4937 4.26398 68.6885 4.34865C70.1061 4.96437 70.8091 6.06882 70.8474 7.60428C70.8894 9.32061 70.1328 10.5482 68.5701 11.2524C68.2339 11.4025 67.8747 11.5103 67.527 11.6411C67.4315 11.6757 67.3398 11.7142 67.1716 11.7797" fill="#253353"/>
<path d="M101.445 55.9768H94.3804C93.0965 53.8679 91.8433 51.7437 90.5556 49.6425C90.5251 49.6541 90.4907 49.6618 90.4601 49.6733V55.9614H84.6256C84.5415 55.6882 84.5033 41.6843 84.5874 40.9685C84.8701 40.8723 89.9481 40.8493 90.4525 40.9532V46.7179C90.4869 46.7294 90.5213 46.7409 90.5518 46.7525C90.6282 46.637 90.7047 46.5254 90.7773 46.4061C91.8357 44.7129 92.9055 43.0235 93.9486 41.3187C94.1473 40.9916 94.3651 40.88 94.7434 40.8839C96.6385 40.907 98.5375 40.8916 100.433 40.8916H100.849C100.864 40.9416 100.872 40.9532 100.876 40.9685C100.876 40.9801 100.88 40.9955 100.876 41.007C100.857 41.0417 100.842 41.0801 100.819 41.1109C99.1565 43.3776 97.4906 45.6403 95.8285 47.907C95.8209 47.9185 95.817 47.9301 95.7941 47.9878C97.6549 50.6162 99.5272 53.2676 101.449 55.9806" fill="#253353"/>
<path d="M107.998 25.6296C107.968 25.6296 107.933 25.6296 107.903 25.6296C107.337 27.2343 106.783 28.8467 106.221 30.513C107.398 30.513 108.502 30.5169 109.664 30.513C109.095 28.839 108.548 27.2343 108.002 25.6296M111.429 37.386C111.089 36.2893 110.753 35.2233 110.421 34.1496C110.275 34.1419 110.157 34.1304 110.038 34.1304C108.621 34.1304 107.2 34.1304 105.782 34.1304C105.4 34.1304 105.396 34.1304 105.293 34.496C105.041 35.3541 104.792 36.2123 104.544 37.0705C104.513 37.1705 104.479 37.2706 104.445 37.3822H98.5566C100.364 32.3448 102.16 27.3459 103.959 22.3354H112.151C113.982 27.3459 115.808 32.3525 117.65 37.3899H111.433L111.429 37.386Z" fill="#253353"/>
<path d="M56.4119 49.0692C55.8464 47.399 55.3077 45.7866 54.746 44.178C54.7154 44.178 54.6811 44.178 54.6505 44.1819C54.0965 45.7981 53.5386 47.4106 52.9693 49.0692H56.4119ZM58.8841 40.8916C60.7257 45.9328 62.5521 50.9356 64.39 55.973H58.181C57.841 54.8916 57.5047 53.8141 57.1685 52.7289H52.1478C51.8307 53.8102 51.5135 54.8801 51.1964 55.9691H45.3198C45.3848 55.7729 45.4345 55.5958 45.4994 55.4227C47.1883 50.7201 48.8809 46.0136 50.5736 41.3111C50.715 40.9185 50.6156 40.8954 51.1582 40.8954C53.5845 40.8954 56.0146 40.8954 58.4408 40.8954H58.8879L58.8841 40.8916Z" fill="#253353"/>
<path d="M84.9618 3.97919V7.81591C84.7937 7.76588 84.6562 7.73125 84.5224 7.68892C82.91 7.19249 81.2594 7.00393 79.5743 7.09628C79.261 7.11168 78.9401 7.17325 78.6382 7.25791C78.4395 7.31179 78.2408 7.41954 78.0842 7.55423C77.7441 7.84285 77.7518 8.32388 78.1071 8.59326C78.3134 8.74719 78.5656 8.87803 78.814 8.9396C79.5591 9.12432 80.3156 9.27056 81.0645 9.42833C81.9357 9.6092 82.7992 9.81701 83.6054 10.2057C84.6409 10.706 85.4433 11.4371 85.768 12.5801C86.2915 14.408 85.9782 16.7593 83.5863 18.0369C82.6616 18.5295 81.6682 18.7989 80.6404 18.9451C78.9897 19.1837 77.3353 19.1491 75.6847 18.9528C74.5957 18.822 73.5144 18.6218 72.4292 18.4487C72.3261 18.4333 72.2267 18.3948 72.0968 18.3563V14.508C72.2382 14.5504 72.3643 14.5889 72.4827 14.6312C74.2824 15.2623 76.1355 15.5355 78.0345 15.4355C78.3899 15.4162 78.7414 15.3393 79.0929 15.2662C79.2572 15.2315 79.4215 15.1584 79.5705 15.0776C79.8227 14.9391 80.0252 14.7582 80.0329 14.4311C80.0443 14.0886 79.8494 13.8846 79.582 13.7345C79.1005 13.4613 78.5618 13.3728 78.0345 13.2497C77.1175 13.038 76.2005 12.8417 75.2911 12.6032C74.6492 12.4338 74.0531 12.1375 73.5067 11.7411C72.6203 11.0946 72.1236 10.2211 71.9669 9.13587C71.8752 8.52014 71.8867 7.90827 72.0128 7.30409C72.2535 6.15346 72.9107 5.29914 73.8965 4.69496C74.7103 4.19469 75.6082 3.91377 76.5367 3.73675C78.2714 3.40964 80.0176 3.3981 81.7675 3.54433C82.6922 3.6213 83.6092 3.76753 84.5262 3.88683C84.6562 3.90222 84.7861 3.9407 84.9542 3.97534" fill="#253353"/>
<path d="M35.3396 13.4074V18.745C35.0301 18.8527 29.8987 18.8797 29.4249 18.7796V3.74829H42.607V7.31564H35.4199C35.3167 7.62735 35.29 9.10123 35.3664 9.79007C35.7447 9.83625 36.1382 9.80547 36.5279 9.80931C36.9139 9.81316 37.2959 9.80931 37.6819 9.80931H38.874C39.2599 9.80931 39.642 9.80931 40.0279 9.80931H42.3892V13.4074H35.3358H35.3396Z" fill="#253353"/>
<path d="M13.1936 22.3354V25.9182H5.92624V28.3888H12.9873C13.0064 29.6125 12.9949 30.7901 12.9987 32.01H5.91095C5.88038 33.8148 5.91859 35.585 5.88803 37.3783H0V22.3393H13.1936V22.3354Z" fill="#253353"/>
<path d="M97.7199 18.8066H91.8089V8.20076C91.6293 8.18922 91.4765 8.17382 91.3237 8.17382C89.9061 8.17382 88.4847 8.17382 87.0633 8.17382C86.9067 8.17382 86.7539 8.15843 86.5819 8.15073V3.79834C86.5819 3.79834 86.601 3.77525 86.6087 3.76371C86.6163 3.75601 86.6278 3.74447 86.6392 3.74062C86.7042 3.73292 86.7691 3.71753 86.8341 3.71753C92.1528 3.71753 97.4753 3.71753 102.794 3.72138C102.832 3.72138 102.867 3.74062 102.928 3.75986V8.16998C102.06 8.17767 101.201 8.16998 100.345 8.16998C99.4851 8.16998 98.6254 8.16998 97.716 8.16998V18.8027L97.7199 18.8066Z" fill="#253353"/>
<path d="M45.5606 21.3386V5.10665C44.9225 4.98736 44.3149 4.87576 43.7074 4.76031C43.7036 4.73722 43.696 4.71028 43.6921 4.68719C46.8215 3.13249 49.947 1.57779 53.126 0C53.1374 0.196262 53.1527 0.323254 53.1527 0.454096C53.1527 6.03793 53.1527 11.6179 53.1604 17.2018C53.1604 17.5212 53.0572 17.6712 52.7821 17.8059C50.4934 18.9258 48.2123 20.0572 45.9312 21.1886C45.828 21.2386 45.7172 21.2771 45.5606 21.3425" fill="#C2002F"/>
<path d="M90.8307 22.5162V26.4607C90.4983 26.3722 90.185 26.2875 89.8717 26.2028C88.6337 25.8757 87.3881 25.7911 86.1463 26.1682C84.9656 26.5261 84.0563 27.2149 83.6551 28.4348C83.2959 29.52 83.3647 30.6014 83.8576 31.6289C84.3963 32.7526 85.3554 33.3298 86.536 33.553C87.8008 33.7916 89.0426 33.63 90.2691 33.276C90.4486 33.2221 90.6244 33.172 90.804 33.122C90.8155 33.122 90.8269 33.1259 90.8422 33.1297C90.9224 33.4106 90.953 36.37 90.8728 37.0819C90.4295 37.1781 89.971 37.2897 89.5049 37.3821C88.6184 37.5591 87.7243 37.663 86.8226 37.6707C84.9618 37.6861 83.1469 37.4167 81.4657 36.5547C79.1311 35.3579 77.79 33.4453 77.469 30.8169C77.3238 29.6239 77.3735 28.4425 77.7441 27.2957C78.2943 25.591 79.3947 24.3364 80.9231 23.4436C82.1229 22.7432 83.422 22.3546 84.7899 22.1737C86.5399 21.939 88.2822 22.0544 90.0131 22.37C90.2729 22.4161 90.5327 22.4662 90.8346 22.5239" fill="#253353"/>
<path d="M117.81 22.3354H123.702V32.9644C124.535 32.9913 125.326 32.9759 126.117 32.9798C126.927 32.9798 127.733 32.9798 128.543 32.9798H130.912C131.015 33.3146 131.034 36.9242 130.939 37.3745H117.833C117.753 37.0936 117.726 22.9627 117.81 22.3354Z" fill="#253353"/>
<path d="M98.3389 37.3745H92.4852V22.3354H98.3236C98.4 22.6356 98.4191 36.8858 98.3389 37.3745Z" fill="#253353"/>
<path d="M20.8507 37.3783H15.0124V22.3854C15.2837 22.2931 20.2509 22.2584 20.8278 22.3469C20.9195 22.6356 20.9463 36.8549 20.8507 37.3783Z" fill="#253353"/>
</g>
<defs>
<clipPath id="clip0_2724_6188">
<rect width="131" height="56" fill="white"/>
</clipPath>
</defs>
</svg>
